<?xml version="1.0" encoding="UTF-8"?><svg xmlns="http://www.w3.org/2000/svg" viewBox="0 0 1502.67 558.31"><defs><style>.cls-1{letter-spacing:-.02em;}.cls-2{letter-spacing:0em;}.cls-3{letter-spacing:-.03em;}.cls-4{fill:#679daf;}.cls-5{fill:#67af6e;}.cls-6{fill:#65437c;}.cls-7{fill:#940c0c;}.cls-8{fill:#ceb712;}.cls-9{fill:#a4bed3;}.cls-10{fill:#d0a8d5;}.cls-11{fill:#173e5c;}.cls-12{fill:#4c87c6;}.cls-13{letter-spacing:-.02em;}.cls-14{font-family:Axia-Regular, Axia;font-size:39.42px;}.cls-15{stroke:#940c0c;}.cls-15,.cls-16,.cls-17,.cls-18,.cls-19,.cls-20{fill:none;stroke-miterlimit:10;stroke-width:5px;}.cls-16{stroke:#65437c;}.cls-17{stroke:#679daf;}.cls-18{stroke:#67af6e;}.cls-19{stroke:#ceb712;}.cls-20{stroke:#d0a8d5;}.cls-21{letter-spacing:-.02em;}.cls-22{letter-spacing:-.01em;}.cls-23{letter-spacing:-.06em;}</style></defs><g id="Calque_1"><text class="cls-14" transform="translate(77.05 53.28)"><tspan class="cls-23" x="0" y="0">T</tspan><tspan x="16.83" y="0">ypol</tspan><tspan class="cls-21" x="86.68" y="0">ogo</tspan><tspan x="148.3" y="0">gie des relations:</tspan></text></g><g id="trait"><g><line class="cls-20" x1="121.64" y1="146" x2="359.48" y2="146"/><polygon class="cls-10" points="126.39 113.81 106.06 146 126.39 178.19 126.6 178.19 126.6 113.81 126.39 113.81"/></g><g><line class="cls-18" x1="121.64" y1="526.12" x2="359.48" y2="526.12"/><polygon class="cls-5" points="126.39 493.94 106.06 526.12 126.39 558.31 126.6 558.31 126.6 493.94 126.39 493.94"/></g><g><line class="cls-17" x1="121.64" y1="450.1" x2="359.48" y2="450.1"/><polygon class="cls-4" points="126.39 417.91 106.06 450.1 126.39 482.29 126.6 482.29 126.6 417.91 126.39 417.91"/></g><g><line class="cls-16" x1="121.64" y1="374.07" x2="359.48" y2="374.07"/><polygon class="cls-6" points="126.39 341.89 106.06 374.07 126.39 406.26 126.6 406.26 126.6 341.89 126.39 341.89"/></g><g><line class="cls-15" x1="121.64" y1="298.05" x2="359.48" y2="298.05"/><polygon class="cls-7" points="126.39 265.86 106.06 298.05 126.39 330.24 126.6 330.24 126.6 265.86 126.39 265.86"/></g><g><line class="cls-19" x1="121.64" y1="222.02" x2="359.48" y2="222.02"/><polygon class="cls-8" points="126.39 189.84 106.06 222.02 126.39 254.21 126.6 254.21 126.6 189.84 126.39 189.84"/></g><text class="cls-14" transform="translate(391.05 161.13)"><tspan x="0" y="0">Amoureuse </tspan></text><text class="cls-14" transform="translate(394.95 386.72)"><tspan x="0" y="0">Jalousie</tspan></text><text class="cls-14" transform="translate(400.55 462.75)"><tspan class="cls-3" x="0" y="0">P</tspan><tspan x="20.58" y="0">eur</tspan></text><text class="cls-14" transform="translate(399.65 310.7)"><tspan class="cls-1" x="0" y="0">C</tspan><tspan x="20.46" y="0">olère</tspan></text><text class="cls-14" transform="translate(392.76 234.67)"><tspan x="0" y="0">Amicale</tspan></text><text class="cls-14" transform="translate(391.51 538.77)"><tspan x="0" y="0">Dé</tspan><tspan class="cls-21" x="43.36" y="0">g</tspan><tspan x="64.53" y="0">oùt</tspan></text></g><g id="Rond"><text class="cls-14" transform="translate(877.82 33.03)"><tspan class="cls-3" x="0" y="0">P</tspan><tspan x="20.58" y="0">ostes occupés par les personna</tspan><tspan class="cls-22" x="525.9" y="0">g</tspan><tspan x="547.07" y="0">es </tspan><tspan x="203.05" y="47.3">p</tspan><tspan class="cls-2" x="223.31" y="47.3">r</tspan><tspan x="236.48" y="47.3">incipaux:</tspan></text><circle cx="949.37" cy="179.79" r="32.38"/><text class="cls-14" transform="translate(1001.46 193.44)"><tspan x="0" y="0">Chef de la chirurgie</tspan></text><circle class="cls-11" cx="949.37" cy="265.37" r="32.38"/><text class="cls-14" transform="translate(1003.22 282.54)"><tspan x="0" y="0">Chirurgiens titulaires</tspan></text><text class="cls-14" transform="translate(1006.02 366.01)"><tspan class="cls-13" x="0" y="0">R</tspan><tspan x="23.18" y="0">ésident</tspan></text><circle class="cls-12" cx="949.37" cy="350.94" r="32.38"/><circle class="cls-9" cx="949.37" cy="438.84" r="32.38"/><text class="cls-14" transform="translate(1004.78 446.85)"><tspan x="0" y="0">Interne</tspan></text></g></svg>